<svg width="14" height="14" viewBox="0 0 14 14" fill="none" xmlns="http://www.w3.org/2000/svg">
<path fill-rule="evenodd" clip-rule="evenodd" d="M7.00016 6.41646C6.51775 6.41646 6.12516 6.02387 6.12516 5.54146C6.12516 5.05904 6.51775 4.66646 7.00016 4.66646C7.48258 4.66646 7.87516 5.05904 7.87516 5.54146C7.87516 6.02387 7.48258 6.41646 7.00016 6.41646ZM7.00016 3.49979C5.87433 3.49979 4.9585 4.41562 4.9585 5.54146C4.9585 6.66729 5.87433 7.58312 7.00016 7.58312C8.126 7.58312 9.04183 6.66729 9.04183 5.54146C9.04183 4.41562 8.126 3.49979 7.00016 3.49979ZM7.00016 11.4602C6.02308 10.5362 3.50016 7.94216 3.50016 5.78791C3.50016 3.88333 5.06991 2.33341 7.00016 2.33341C8.93041 2.33341 10.5002 3.88333 10.5002 5.78791C10.5002 7.94216 7.97725 10.5362 7.00016 11.4602ZM7.00016 1.16675C4.42708 1.16675 2.3335 3.23933 2.3335 5.78791C2.3335 8.98166 6.44541 12.5423 6.62041 12.6922C6.73008 12.7862 6.86483 12.8334 7.00016 12.8334C7.1355 12.8334 7.27025 12.7862 7.37991 12.6922C7.55491 12.5423 11.6668 8.98166 11.6668 5.78791C11.6668 3.23933 9.57325 1.16675 7.00016 1.16675Z" fill="#9FA3AA"/>
</svg>
