<svg width="92" height="31" viewBox="0 0 92 31" fill="none" xmlns="http://www.w3.org/2000/svg">
<path d="M0.72 30C1.04 28.6667 1.46667 27.1867 2 25.56C2.56 23.9067 3.18667 22.1867 3.88 20.4C4.6 18.6133 5.33333 16.84 6.08 15.08C6.82667 13.32 7.54667 11.64 8.24 10.04C8.93333 8.41333 9.73333 6.77333 10.64 5.12C10.8267 4.8 10.9867 4.50667 11.12 4.24C11.28 3.97333 11.4533 3.74667 11.64 3.56C10.6 3.58667 9.48 3.72 8.28 3.96C7.10667 4.17333 5.97333 4.48 4.88 4.88C3.81333 5.28 2.89333 5.74667 2.12 6.28C1.37333 6.81333 0.893333 7.4 0.68 8.04C0.653333 8.12 0.6 8.16 0.52 8.16C0.28 8.16 0.16 7.97333 0.16 7.6C0.16 7.52 0.186667 7.4 0.24 7.24C0.48 6.54667 0.773333 5.93333 1.12 5.4C1.49333 4.86667 1.86667 4.41333 2.24 4.04C3.12 3.13333 4.10667 2.58667 5.2 2.4C6.29333 2.18667 7.45333 2.08 8.68 2.08H18.4C19.52 2.08 20.52 2.2 21.4 2.44C22.28 2.65333 23.0133 2.96 23.6 3.36C24.3733 3.86667 24.9333 4.49333 25.28 5.24C25.6267 5.96 25.8 6.72 25.8 7.52C25.8 8.74667 25.5333 9.84 25 10.8C24.4667 11.76 23.76 12.5867 22.88 13.28C22.0267 13.9733 21.0667 14.5333 20 14.96C18.9333 15.3867 17.8533 15.7067 16.76 15.92L15.48 16.16C16.12 18.32 16.9333 20.2667 17.92 22C18.9067 23.7333 19.9333 25.2533 21 26.56C22.0667 27.8667 23.0267 28.9867 23.88 29.92C23.48 30 22.8667 30.04 22.04 30.04C21.32 30.04 20.6267 30.0267 19.96 30C19.2933 29.9467 18.96 29.92 18.96 29.92C18.2933 29.92 17.64 29.56 17 28.84C16.36 28.12 15.7467 27.2 15.16 26.08C14.5733 24.9333 14.04 23.7467 13.56 22.52C13.1067 21.2667 12.72 20.1067 12.4 19.04C12.1067 17.9733 11.9067 17.1467 11.8 16.56C11.8 16.48 11.7867 16.4 11.76 16.32C11.76 16.24 11.76 16.1467 11.76 16.04C11.76 15.88 11.7867 15.7467 11.84 15.64C11.92 15.5067 12.0667 15.4267 12.28 15.4C13.6133 15.24 14.8267 15 15.92 14.68C17.0133 14.3333 18.0133 13.8667 18.92 13.28C19.8267 12.6667 20.56 11.92 21.12 11.04C21.68 10.1333 21.96 9.06667 21.96 7.84C21.96 6.85333 21.68 5.96 21.12 5.16C20.5867 4.33333 19.72 3.78667 18.52 3.52C18.2 3.44 17.8533 3.38667 17.48 3.36C17.1333 3.33333 16.7733 3.30666 16.4 3.28C15.8133 4.08 15.2 5.04 14.56 6.16C13.92 7.28 13.2933 8.46667 12.68 9.72C12.0667 10.9467 11.48 12.1733 10.92 13.4C10.3867 14.6 9.90667 15.7067 9.48 16.72C9.26667 17.28 8.94667 18.0933 8.52 19.16C8.12 20.2267 7.70667 21.3867 7.28 22.64C6.85333 23.8933 6.48 25.1067 6.16 26.28C5.86667 27.4267 5.72 28.3733 5.72 29.12C5.72 29.52 5.77333 29.8133 5.88 30H0.72ZM33.1019 29.44C31.8752 30.08 30.5819 30.4 29.2219 30.4C28.0752 30.4 27.0085 30.12 26.0219 29.56C25.0352 29 24.3685 28.1067 24.0219 26.88C23.8619 26.32 23.7819 25.7333 23.7819 25.12C23.7819 24.1067 23.9552 23.0667 24.3019 22C24.6752 20.9067 25.1552 19.9067 25.7419 19C26.6485 17.5867 27.7952 16.4133 29.1819 15.48C30.5685 14.5467 32.1019 14.08 33.7819 14.08C35.0352 14.08 36.0085 14.4 36.7019 15.04C37.3952 15.68 37.7419 16.4267 37.7419 17.28C37.7419 18.2933 37.3952 19.1867 36.7019 19.96C36.0352 20.7067 35.1552 21.28 34.0619 21.68C33.5285 21.8667 32.9552 22.0133 32.3419 22.12C31.7552 22.2 31.1952 22.24 30.6619 22.24C29.5685 22.24 28.7285 22.0933 28.1419 21.8C27.6352 23.1067 27.3819 24.3067 27.3819 25.4C27.3819 26.3867 27.6085 27.2 28.0619 27.84C28.5152 28.4533 29.2352 28.76 30.2219 28.76C31.0485 28.76 31.8619 28.5333 32.6619 28.08C33.4885 27.6267 34.2485 27.0667 34.9419 26.4C35.6619 25.7333 36.2619 25.0933 36.7419 24.48C37.1152 24.0267 37.4352 23.6 37.7019 23.2C37.9685 22.8 38.2485 22.3467 38.5419 21.84C38.8352 21.3067 39.1819 20.6533 39.5819 19.88C39.6885 19.6933 39.7819 19.6 39.8619 19.6C40.0219 19.6 40.1019 19.8133 40.1019 20.24C40.1019 20.48 40.0619 20.7467 39.9819 21.04C39.9285 21.3067 39.8219 21.5867 39.6619 21.88C39.2885 22.5467 38.8352 23.28 38.3019 24.08C37.7952 24.8533 37.2752 25.6 36.7419 26.32C36.2619 26.96 35.7152 27.5467 35.1019 28.08C34.4885 28.6133 33.8219 29.0667 33.1019 29.44ZM29.4619 20.92C29.5952 21 29.7419 21.0533 29.9019 21.08C30.0619 21.1067 30.2219 21.12 30.3819 21.12C30.9152 21.12 31.4485 21 31.9819 20.76C32.5152 20.4933 32.9685 20.2267 33.3419 19.96C33.9552 19.5333 34.4752 19.0267 34.9019 18.44C35.3285 17.8533 35.5685 17.1867 35.6219 16.44C35.6485 16.12 35.5685 15.8533 35.3819 15.64C35.2219 15.4 34.9285 15.28 34.5019 15.28C34.2885 15.28 34.0219 15.32 33.7019 15.4C33.2752 15.5067 32.8485 15.7067 32.4219 16C31.9952 16.2933 31.5819 16.64 31.1819 17.04C31.0485 17.1733 30.8085 17.44 30.4619 17.84C30.1419 18.2133 29.8352 18.64 29.5419 19.12C29.2485 19.5733 29.1019 19.9733 29.1019 20.32C29.1019 20.6133 29.2219 20.8133 29.4619 20.92ZM40.2378 30.24C39.4911 30.24 38.9311 29.9733 38.5578 29.44C38.1845 28.88 37.9978 28.1333 37.9978 27.2C37.9978 27.0667 37.9978 26.9333 37.9978 26.8C37.9978 26.6667 38.0111 26.5333 38.0378 26.4C38.1711 25.3867 38.3978 24.24 38.7178 22.96C39.0645 21.68 39.4645 20.3333 39.9178 18.92C40.1845 18.12 40.5178 17.12 40.9178 15.92C41.3445 14.6933 41.8378 13.3867 42.3978 12C42.9578 10.5867 43.5711 9.18667 44.2378 7.8C44.9311 6.41333 45.6911 5.16 46.5178 4.04C47.3445 2.89333 48.2111 1.97333 49.1178 1.28C50.0511 0.586665 51.0378 0.239999 52.0778 0.239999C52.9311 0.239999 53.5178 0.453332 53.8378 0.879998C54.1578 1.28 54.3178 1.76 54.3178 2.32C54.3178 2.90667 54.2111 3.50667 53.9978 4.12C53.7845 4.70667 53.5711 5.2 53.3578 5.6C52.8778 6.56 52.2511 7.64 51.4778 8.84C50.7045 10.04 49.8911 11.16 49.0378 12.2C48.5311 12.8667 47.9045 13.6133 47.1578 14.44C46.4111 15.2667 45.7045 16.0267 45.0378 16.72C44.3978 17.4133 43.9311 17.8933 43.6378 18.16L42.9978 20C42.8111 20.5067 42.6245 21.1067 42.4378 21.8C42.2778 22.4933 42.1311 23.1867 41.9978 23.88C41.8911 24.5467 41.7978 25.1333 41.7178 25.64C41.6911 25.7467 41.6778 25.8533 41.6778 25.96C41.6778 26.0667 41.6778 26.16 41.6778 26.24C41.6778 27.04 41.9845 27.44 42.5978 27.44C42.9711 27.44 43.4378 27.2667 43.9978 26.92C44.5311 26.6 45.0378 26.1867 45.5178 25.68C46.0245 25.1467 46.3845 24.7467 46.5978 24.48C47.1311 23.7867 47.6378 23.0533 48.1178 22.28C48.5978 21.48 49.0111 20.7467 49.3578 20.08C49.4911 19.8667 49.5845 19.76 49.6378 19.76C49.7978 19.76 49.8778 19.9867 49.8778 20.44C49.8778 20.6533 49.8378 20.9067 49.7578 21.2C49.7045 21.4667 49.6111 21.72 49.4778 21.96C49.1045 22.6 48.6645 23.3067 48.1578 24.08C47.6511 24.8533 47.1311 25.6 46.5978 26.32C46.1978 26.8533 45.6378 27.4267 44.9178 28.04C44.1978 28.6533 43.4245 29.1733 42.5978 29.6C41.7711 30.0267 40.9845 30.24 40.2378 30.24ZM44.4378 15.88C45.7711 14.3067 47.1178 12.6267 48.4778 10.84C49.8645 9.02666 51.0111 7.18666 51.9178 5.32C51.9711 5.18667 52.0911 4.92 52.2778 4.52C52.4645 4.12 52.6378 3.68 52.7978 3.2C52.9578 2.69333 53.0378 2.26667 53.0378 1.92C53.0378 1.46667 52.8645 1.24 52.5178 1.24H52.2378C51.8911 1.24 51.4778 1.48 50.9978 1.96C50.5445 2.44 50.0778 3.08 49.5978 3.88C48.9845 4.89333 48.3845 6.06667 47.7978 7.4C47.2111 8.70667 46.6378 10.0933 46.0778 11.56C45.5178 13.0267 44.9711 14.4667 44.4378 15.88ZM56.7606 10.8C56.0673 10.56 55.7206 10.1067 55.7206 9.44C55.7206 8.82667 55.9606 8.2 56.4406 7.56C56.9473 6.89333 57.494 6.46667 58.0806 6.28C58.214 6.22667 58.3206 6.2 58.4006 6.2C58.5073 6.2 58.614 6.2 58.7206 6.2C59.174 6.2 59.5473 6.33333 59.8406 6.6C60.134 6.86666 60.2806 7.17333 60.2806 7.52C60.2806 8 60.0273 8.4 59.5206 8.72C59.1206 8.66667 58.734 8.76 58.3606 9C57.9873 9.24 57.654 9.53333 57.3606 9.88C57.094 10.2267 56.894 10.5333 56.7606 10.8ZM49.8806 30.24C49.534 30.24 49.2006 30.16 48.8806 30C48.5606 29.8667 48.294 29.5867 48.0806 29.16C47.7873 28.52 47.6406 27.76 47.6406 26.88C47.6406 25.92 47.7873 24.8533 48.0806 23.68C48.374 22.48 48.7606 21.2533 49.2406 20C49.4273 19.5467 49.6673 18.9867 49.9606 18.32C50.254 17.6533 50.6006 16.9867 51.0006 16.32C51.4006 15.6533 51.854 15.1067 52.3606 14.68C52.894 14.2267 53.4673 14 54.0806 14C54.374 14 54.7873 14.0133 55.3206 14.04C55.854 14.0667 56.2406 14.0667 56.4806 14.04C56.3206 14.1467 56.134 14.36 55.9206 14.68C55.7073 15 55.5073 15.3333 55.3206 15.68C55.134 16 54.9873 16.2533 54.8806 16.44C54.1873 17.8267 53.534 19.2 52.9206 20.56C52.3073 21.92 51.8406 23.2267 51.5206 24.48C51.4673 24.6933 51.4273 24.9067 51.4006 25.12C51.374 25.3333 51.3606 25.5333 51.3606 25.72C51.3606 26.4933 51.614 26.88 52.1206 26.88C52.334 26.88 52.5606 26.8267 52.8006 26.72C53.0673 26.5867 53.374 26.3867 53.7206 26.12C54.334 25.64 54.8673 25.0933 55.3206 24.48C55.854 23.7867 56.3606 23.0533 56.8406 22.28C57.3206 21.48 57.734 20.7467 58.0806 20.08C58.214 19.8667 58.3073 19.76 58.3606 19.76C58.5206 19.76 58.6006 19.9867 58.6006 20.44C58.6006 20.6533 58.5606 20.9067 58.4806 21.2C58.4273 21.4667 58.334 21.72 58.2006 21.96C57.8273 22.6 57.3873 23.3067 56.8806 24.08C56.374 24.8533 55.854 25.6 55.3206 26.32C54.9473 26.8267 54.454 27.3867 53.8406 28C53.2273 28.6133 52.574 29.1467 51.8806 29.6C51.1873 30.0267 50.5206 30.24 49.8806 30.24ZM61.5925 30.8C60.6858 30.8 59.8325 30.68 59.0325 30.44C58.2325 30.2 57.5792 29.8267 57.0725 29.32C56.5658 28.8133 56.3125 28.1733 56.3125 27.4C56.3125 26.8133 56.4858 26.24 56.8325 25.68C57.2058 25.12 57.7258 24.84 58.3925 24.84C58.6858 24.84 58.9525 24.9067 59.1925 25.04C59.4325 25.1733 59.5925 25.3467 59.6725 25.56C59.6458 25.5867 59.5792 25.68 59.4725 25.84C59.3658 25.9733 59.2992 26.0667 59.2725 26.12C59.0325 26.6 58.9125 27.04 58.9125 27.44C58.9125 28 59.1125 28.4533 59.5125 28.8C59.9392 29.1467 60.4858 29.32 61.1525 29.32C62.0325 29.2933 62.7925 28.9867 63.4325 28.4C64.0992 27.7867 64.4325 27.0667 64.4325 26.24C64.4325 25.76 64.3258 25.3067 64.1125 24.88C63.7658 24.16 63.2992 23.5467 62.7125 23.04C62.1525 22.5067 61.6058 21.9733 61.0725 21.44C60.5658 20.9067 60.1925 20.2667 59.9525 19.52C59.8458 19.1733 59.7925 18.7467 59.7925 18.24C59.7925 17.7333 59.8592 17.24 59.9925 16.76C60.1258 16.2533 60.3258 15.8267 60.5925 15.48C60.9658 14.9733 61.5258 14.5067 62.2725 14.08C63.2058 13.5733 64.2992 13.32 65.5525 13.32C66.3792 13.32 67.1125 13.4267 67.7525 13.64C68.2325 13.8 68.6458 14.0667 68.9925 14.44C69.3658 14.7867 69.5525 15.2533 69.5525 15.84C69.5525 16.5067 69.3392 17.1467 68.9125 17.76C68.5125 18.3467 67.9258 18.7067 67.1525 18.84C66.6725 18.8933 66.2458 18.8133 65.8725 18.6C65.4992 18.36 65.3658 17.92 65.4725 17.28C66.1925 17.12 66.7125 16.8267 67.0325 16.4C67.1925 16.16 67.2725 15.92 67.2725 15.68C67.2725 15.2267 67.0858 14.92 66.7125 14.76C66.3658 14.5733 66.0325 14.48 65.7125 14.48C65.3125 14.48 64.9258 14.5333 64.5525 14.64C64.2058 14.72 63.8858 14.8667 63.5925 15.08C63.0058 15.5867 62.7125 16.1733 62.7125 16.84C62.7125 16.9467 62.7258 17.0667 62.7525 17.2C62.8058 17.3333 62.8458 17.4667 62.8725 17.6C63.0058 17.9467 63.2058 18.2667 63.4725 18.56C63.7392 18.8533 64.0058 19.1067 64.2725 19.32C64.9392 19.8 65.6192 20.32 66.3125 20.88C67.0325 21.44 67.5658 22.12 67.9125 22.92C68.1792 23.48 68.3125 24.0533 68.3125 24.64C68.3125 25.44 68.1125 26.1733 67.7125 26.84C67.3125 27.48 66.8592 27.9867 66.3525 28.36C67.2325 27.9867 68.0858 27.3333 68.9125 26.4C69.7658 25.44 70.4992 24.4933 71.1125 23.56C71.5125 22.9467 71.8725 22.3733 72.1925 21.84C72.5392 21.28 72.8858 20.6667 73.2325 20C73.3392 19.8133 73.4325 19.72 73.5125 19.72C73.6725 19.72 73.7525 19.9467 73.7525 20.4C73.7525 20.5867 73.7125 20.8133 73.6325 21.08C73.5792 21.3467 73.4858 21.6133 73.3525 21.88C72.8725 22.68 72.4192 23.4267 71.9925 24.12C71.5658 24.7867 71.0458 25.52 70.4325 26.32C69.2058 27.9467 67.8992 29.1067 66.5125 29.8C65.1258 30.4667 63.4858 30.8 61.5925 30.8ZM82.5097 30.24C81.603 30.24 80.9764 29.9733 80.6297 29.44C80.3097 28.88 80.1497 28.24 80.1497 27.52C80.1497 26.7467 80.2697 25.8533 80.5097 24.84C80.7764 23.8 81.0964 22.7333 81.4697 21.64C81.8697 20.52 82.2697 19.48 82.6697 18.52C82.803 18.2 82.923 17.8533 83.0297 17.48C83.163 17.1067 83.2297 16.7733 83.2297 16.48C83.2297 15.9467 82.9897 15.68 82.5097 15.68C82.323 15.68 82.1097 15.72 81.8697 15.8C81.6297 15.8533 81.3497 15.9733 81.0297 16.16C80.4697 16.4267 79.9364 16.8 79.4297 17.28C78.923 17.7333 78.5764 18.08 78.3897 18.32C78.043 18.7467 77.7097 19.2267 77.3897 19.76C77.0697 20.2667 76.7897 20.7867 76.5497 21.32C76.0164 22.4667 75.5897 23.56 75.2697 24.6C74.9764 25.6133 74.6964 26.48 74.4297 27.2C74.2697 27.6533 74.1097 28.12 73.9497 28.6C73.7897 29.08 73.643 29.5467 73.5097 30H69.6297C69.6297 30 69.723 29.6667 69.9097 29C70.0964 28.3333 70.323 27.6667 70.5897 27C71.8164 23.8267 72.9764 20.5867 74.0697 17.28C75.163 13.9733 76.483 10.8 78.0297 7.76C78.723 6.4 79.4697 5.14666 80.2697 4C81.0964 2.85333 81.963 1.94667 82.8697 1.28C83.803 0.586665 84.7764 0.239999 85.7897 0.239999C86.5897 0.239999 87.1364 0.426666 87.4297 0.799999C87.7497 1.14667 87.9097 1.58667 87.9097 2.12C87.9097 2.70667 87.7897 3.32 87.5497 3.96C87.3097 4.6 87.0697 5.14667 86.8297 5.6C86.3497 6.56 85.723 7.64 84.9497 8.84C84.1764 10.04 83.363 11.16 82.5097 12.2C82.323 12.44 82.003 12.8267 81.5497 13.36C81.0964 13.8667 80.6297 14.3867 80.1497 14.92C79.6964 15.4533 79.3364 15.8667 79.0697 16.16C79.9497 15.52 80.7097 15.0267 81.3497 14.68C81.9897 14.3333 82.5364 14.0933 82.9897 13.96C83.763 13.7467 84.403 13.64 84.9097 13.64C86.4297 13.64 87.1897 14.3067 87.1897 15.64C87.1897 16.2 87.0297 16.8667 86.7097 17.64C86.5497 18.0667 86.323 18.64 86.0297 19.36C85.7364 20.08 85.4297 20.8533 85.1097 21.68C84.8164 22.48 84.563 23.2533 84.3497 24C84.163 24.7467 84.0697 25.36 84.0697 25.84C84.0697 26.1333 84.1097 26.4 84.1897 26.64C84.2964 26.8533 84.483 26.96 84.7497 26.96C84.9364 26.96 85.203 26.8667 85.5497 26.68C86.2964 26.2533 86.9897 25.6533 87.6297 24.88C88.2964 24.1067 88.883 23.28 89.3897 22.4C89.923 21.52 90.3764 20.72 90.7497 20C90.8297 19.8133 90.923 19.72 91.0297 19.72C91.163 19.72 91.2297 19.9467 91.2297 20.4C91.2297 20.6133 91.203 20.8667 91.1497 21.16C91.0964 21.4267 90.9897 21.6933 90.8297 21.96C90.4564 22.6 89.963 23.3867 89.3497 24.32C88.763 25.2533 88.0964 26.1733 87.3497 27.08C86.603 27.96 85.8164 28.7067 84.9897 29.32C84.163 29.9333 83.3364 30.24 82.5097 30.24ZM77.9097 15.88C79.243 14.3067 80.5897 12.6267 81.9497 10.84C83.3364 9.02666 84.483 7.18666 85.3897 5.32C85.443 5.18667 85.563 4.92 85.7497 4.52C85.9364 4.12 86.1097 3.68 86.2697 3.2C86.4297 2.69333 86.5097 2.26667 86.5097 1.92C86.5097 1.46667 86.3364 1.24 85.9897 1.24C85.643 1.24 85.2297 1.48 84.7497 1.96C84.2964 2.44 83.8297 3.08 83.3497 3.88C82.7364 4.89333 82.1097 6.06667 81.4697 7.4C80.8297 8.70667 80.203 10.0933 79.5897 11.56C79.003 13.0267 78.443 14.4667 77.9097 15.88Z" fill="#212121"/>
</svg>
